<?xml version="1.0" standalone="no"?>
<svg xmlns="http://www.w3.org/2000/svg" width="300" height="300"><defs><clipPath id="clip-path-dot-color"><path d="M 5 95v 10h 5a 5 5, 0, 0, 0, 0 -10" transform="rotate(180,10,100)"/><circle cx="10" cy="120" r="5" transform="rotate(0,10,120)"/><circle cx="10" cy="140" r="5" transform="rotate(0,10,140)"/><path d="M 5 165v 10h 5a 5 5, 0, 0, 0, 0 -10" transform="rotate(-90,10,170)"/><path d="M 5 175v 10h 10v -5a 5 5, 0, 0, 0, -5 -5" transform="rotate(180,10,180)"/><path d="M 5 195v 10h 10v -5a 5 5, 0, 0, 0, -5 -5" transform="rotate(-90,10,200)"/><path d="M 5 205v 10h 5a 5 5, 0, 0, 0, 0 -10" transform="rotate(90,10,210)"/><path d="M 15 85v 10h 5a 5 5, 0, 0, 0, 0 -10" transform="rotate(-90,20,90)"/><rect x="15" y="95" width="10" height="10" transform="rotate(0,20,100)"/><path d="M 15 105v 10h 10v -5a 5 5, 0, 0, 0, -5 -5" transform="rotate(180,20,110)"/><path d="M 15 125v 10h 5a 5 5, 0, 0, 0, 0 -10" transform="rotate(180,20,130)"/><path d="M 15 145v 10h 10v -5a 5 5, 0, 0, 0, -5 -5" transform="rotate(-90,20,150)"/><path d="M 15 155v 10h 5a 5 5, 0, 0, 0, 0 -10" transform="rotate(90,20,160)"/><path d="M 15 175v 10h 5a 5 5, 0, 0, 0, 0 -10" transform="rotate(0,20,180)"/><rect x="15" y="195" width="10" height="10" transform="rotate(0,20,200)"/><path d="M 25 105v 10h 5a 5 5, 0, 0, 0, 0 -10" transform="rotate(0,30,110)"/><rect x="25" y="125" width="10" height="10" transform="rotate(0,30,130)"/><path d="M 25 145v 10h 5a 5 5, 0, 0, 0, 0 -10" transform="rotate(0,30,150)"/><path d="M 25 195v 10h 5a 5 5, 0, 0, 0, 0 -10" transform="rotate(0,30,200)"/><path d="M 35 85v 10h 10v -5a 5 5, 0, 0, 0, -5 -5" transform="rotate(-90,40,90)"/><path d="M 35 95v 10h 10v -5a 5 5, 0, 0, 0, -5 -5" transform="rotate(180,40,100)"/><rect x="35" y="125" width="10" height="10" transform="rotate(0,40,130)"/><path d="M 35 135v 10h 10v -5a 5 5, 0, 0, 0, -5 -5" transform="rotate(180,40,140)"/><path d="M 35 165v 10h 10v -5a 5 5, 0, 0, 0, -5 -5" transform="rotate(-90,40,170)"/><rect x="35" y="175" width="10" height="10" transform="rotate(0,40,180)"/><path d="M 35 185v 10h 10v -5a 5 5, 0, 0, 0, -5 -5" transform="rotate(180,40,190)"/><path d="M 45 85v 10h 10v -5a 5 5, 0, 0, 0, -5 -5" transform="rotate(0,50,90)"/><path d="M 45 95v 10h 10v -5a 5 5, 0, 0, 0, -5 -5" transform="rotate(90,50,100)"/><path d="M 45 115v 10h 5a 5 5, 0, 0, 0, 0 -10" transform="rotate(-90,50,120)"/><rect x="45" y="125" width="10" height="10" transform="rotate(0,50,130)"/><rect x="45" y="135" width="10" height="10" transform="rotate(0,50,140)"/><rect x="45" y="145" width="10" height="10" transform="rotate(0,50,150)"/><rect x="45" y="155" width="10" height="10" transform="rotate(0,50,160)"/><rect x="45" y="165" width="10" height="10" transform="rotate(0,50,170)"/><path d="M 45 185v 10h 10v -5a 5 5, 0, 0, 0, -5 -5" transform="rotate(0,50,190)"/><path d="M 45 195v 10h 5a 5 5, 0, 0, 0, 0 -10" transform="rotate(90,50,200)"/><rect x="55" y="165" width="10" height="10" transform="rotate(0,60,170)"/><path d="M 55 205v 10h 5a 5 5, 0, 0, 0, 0 -10" transform="rotate(180,60,210)"/><path d="M 65 85v 10h 5a 5 5, 0, 0, 0, 0 -10" transform="rotate(180,70,90)"/><path d="M 65 105v 10h 5a 5 5, 0, 0, 0, 0 -10" transform="rotate(180,70,110)"/><circle cx="70" cy="130" r="5" transform="rotate(0,70,130)"/><path d="M 65 145v 10h 5a 5 5, 0, 0, 0, 0 -10" transform="rotate(180,70,150)"/><rect x="65" y="165" width="10" height="10" transform="rotate(0,70,170)"/><path d="M 65 185v 10h 5a 5 5, 0, 0, 0, 0 -10" transform="rotate(180,70,190)"/><path d="M 65 205v 10h 5a 5 5, 0, 0, 0, 0 -10" transform="rotate(0,70,210)"/><rect x="75" y="85" width="10" height="10" transform="rotate(0,80,90)"/><rect x="75" y="95" width="10" height="10" transform="rotate(0,80,100)"/><path d="M 75 105v 10h 10v -5a 5 5, 0, 0, 0, -5 -5" transform="rotate(90,80,110)"/><rect x="75" y="145" width="10" height="10" transform="rotate(0,80,150)"/><rect x="75" y="155" width="10" height="10" transform="rotate(0,80,160)"/><rect x="75" y="165" width="10" height="10" transform="rotate(0,80,170)"/><rect x="75" y="175" width="10" height="10" transform="rotate(0,80,180)"/><path d="M 75 185v 10h 10v -5a 5 5, 0, 0, 0, -5 -5" transform="rotate(90,80,190)"/><path d="M 85 15v 10h 5a 5 5, 0, 0, 0, 0 -10" transform="rotate(180,90,20)"/><path d="M 85 35v 10h 5a 5 5, 0, 0, 0, 0 -10" transform="rotate(-90,90,40)"/><rect x="85" y="45" width="10" height="10" transform="rotate(0,90,50)"/><rect x="85" y="55" width="10" height="10" transform="rotate(0,90,60)"/><path d="M 85 65v 10h 5a 5 5, 0, 0, 0, 0 -10" transform="rotate(90,90,70)"/><rect x="85" y="85" width="10" height="10" transform="rotate(0,90,90)"/><path d="M 85 115v 10h 10v -5a 5 5, 0, 0, 0, -5 -5" transform="rotate(-90,90,120)"/><rect x="85" y="125" width="10" height="10" transform="rotate(0,90,130)"/><rect x="85" y="135" width="10" height="10" transform="rotate(0,90,140)"/><rect x="85" y="145" width="10" height="10" transform="rotate(0,90,150)"/><rect x="85" y="155" width="10" height="10" transform="rotate(0,90,160)"/><path d="M 85 165v 10h 10v -5a 5 5, 0, 0, 0, -5 -5" transform="rotate(90,90,170)"/><circle cx="90" cy="200" r="5" transform="rotate(0,90,200)"/><path d="M 85 215v 10h 5a 5 5, 0, 0, 0, 0 -10" transform="rotate(-90,90,220)"/><path d="M 85 225v 10h 5a 5 5, 0, 0, 0, 0 -10" transform="rotate(90,90,230)"/><path d="M 85 245v 10h 10v -5a 5 5, 0, 0, 0, -5 -5" transform="rotate(-90,90,250)"/><path d="M 85 255v 10h 10v -5a 5 5, 0, 0, 0, -5 -5" transform="rotate(180,90,260)"/><path d="M 85 275v 10h 5a 5 5, 0, 0, 0, 0 -10" transform="rotate(180,90,280)"/><rect x="95" y="15" width="10" height="10" transform="rotate(0,100,20)"/><path d="M 95 45v 10h 10v -5a 5 5, 0, 0, 0, -5 -5" transform="rotate(0,100,50)"/><rect x="95" y="55" width="10" height="10" transform="rotate(0,100,60)"/><path d="M 95 85v 10h 10v -5a 5 5, 0, 0, 0, -5 -5" transform="rotate(0,100,90)"/><path d="M 95 95v 10h 10v -5a 5 5, 0, 0, 0, -5 -5" transform="rotate(180,100,100)"/><path d="M 95 115v 10h 10v -5a 5 5, 0, 0, 0, -5 -5" transform="rotate(0,100,120)"/><rect x="95" y="125" width="10" height="10" transform="rotate(0,100,130)"/><path d="M 95 135v 10h 10v -5a 5 5, 0, 0, 0, -5 -5" transform="rotate(90,100,140)"/><path d="M 95 175v 10h 5a 5 5, 0, 0, 0, 0 -10" transform="rotate(-90,100,180)"/><path d="M 95 185v 10h 5a 5 5, 0, 0, 0, 0 -10" transform="rotate(90,100,190)"/><path d="M 95 235v 10h 5a 5 5, 0, 0, 0, 0 -10" transform="rotate(-90,100,240)"/><rect x="95" y="245" width="10" height="10" transform="rotate(0,100,250)"/><rect x="95" y="255" width="10" height="10" transform="rotate(0,100,260)"/><path d="M 95 275v 10h 5a 5 5, 0, 0, 0, 0 -10" transform="rotate(0,100,280)"/><path d="M 105 15v 10h 5a 5 5, 0, 0, 0, 0 -10" transform="rotate(0,110,20)"/><path d="M 105 35v 10h 5a 5 5, 0, 0, 0, 0 -10" transform="rotate(180,110,40)"/><path d="M 105 55v 10h 10v -5a 5 5, 0, 0, 0, -5 -5" transform="rotate(0,110,60)"/><rect x="105" y="65" width="10" height="10" transform="rotate(0,110,70)"/><path d="M 105 75v 10h 5a 5 5, 0, 0, 0, 0 -10" transform="rotate(90,110,80)"/><rect x="105" y="95" width="10" height="10" transform="rotate(0,110,100)"/><path d="M 105 195v 10h 10v -5a 5 5, 0, 0, 0, -5 -5" transform="rotate(-90,110,200)"/><rect x="105" y="205" width="10" height="10" transform="rotate(0,110,210)"/><rect x="105" y="215" width="10" height="10" transform="rotate(0,110,220)"/><path d="M 105 225v 10h 5a 5 5, 0, 0, 0, 0 -10" transform="rotate(90,110,230)"/><rect x="105" y="255" width="10" height="10" transform="rotate(0,110,260)"/><rect x="115" y="35" width="10" height="10" transform="rotate(0,120,40)"/><path d="M 115 45v 10h 5a 5 5, 0, 0, 0, 0 -10" transform="rotate(90,120,50)"/><path d="M 115 85v 10h 10v -5a 5 5, 0, 0, 0, -5 -5" transform="rotate(-90,120,90)"/><rect x="115" y="95" width="10" height="10" transform="rotate(0,120,100)"/><path d="M 115 195v 10h 10v -5a 5 5, 0, 0, 0, -5 -5" transform="rotate(0,120,200)"/><path d="M 115 205v 10h 10v -5a 5 5, 0, 0, 0, -5 -5" transform="rotate(90,120,210)"/><path d="M 115 235v 10h 5a 5 5, 0, 0, 0, 0 -10" transform="rotate(-90,120,240)"/><rect x="115" y="245" width="10" height="10" transform="rotate(0,120,250)"/><rect x="115" y="255" width="10" height="10" transform="rotate(0,120,260)"/><circle cx="120" cy="290" r="5" transform="rotate(0,120,290)"/><path d="M 125 5v 10h 5a 5 5, 0, 0, 0, 0 -10" transform="rotate(-90,130,10)"/><path d="M 125 15v 10h 5a 5 5, 0, 0, 0, 0 -10" transform="rotate(90,130,20)"/><rect x="125" y="35" width="10" height="10" transform="rotate(0,130,40)"/><path d="M 125 55v 10h 10v -5a 5 5, 0, 0, 0, -5 -5" transform="rotate(-90,130,60)"/><path d="M 125 65v 10h 5a 5 5, 0, 0, 0, 0 -10" transform="rotate(90,130,70)"/><rect x="125" y="85" width="10" height="10" transform="rotate(0,130,90)"/><path d="M 125 95v 10h 10v -5a 5 5, 0, 0, 0, -5 -5" transform="rotate(90,130,100)"/><path d="M 125 215v 10h 5a 5 5, 0, 0, 0, 0 -10" transform="rotate(-90,130,220)"/><path d="M 125 225v 10h 10v -5a 5 5, 0, 0, 0, -5 -5" transform="rotate(180,130,230)"/><path d="M 125 255v 10h 5a 5 5, 0, 0, 0, 0 -10" transform="rotate(0,130,260)"/><circle cx="130" cy="280" r="5" transform="rotate(0,130,280)"/><rect x="135" y="35" width="10" height="10" transform="rotate(0,140,40)"/><rect x="135" y="45" width="10" height="10" transform="rotate(0,140,50)"/><rect x="135" y="55" width="10" height="10" transform="rotate(0,140,60)"/><path d="M 135 75v 10h 10v -5a 5 5, 0, 0, 0, -5 -5" transform="rotate(-90,140,80)"/><path d="M 135 85v 10h 10v -5a 5 5, 0, 0, 0, -5 -5" transform="rotate(90,140,90)"/><path d="M 135 225v 10h 5a 5 5, 0, 0, 0, 0 -10" transform="rotate(0,140,230)"/><circle cx="140" cy="250" r="5" transform="rotate(0,140,250)"/><circle cx="140" cy="270" r="5" transform="rotate(0,140,270)"/><path d="M 135 285v 10h 5a 5 5, 0, 0, 0, 0 -10" transform="rotate(180,140,290)"/><path d="M 145 35v 10h 5a 5 5, 0, 0, 0, 0 -10" transform="rotate(0,150,40)"/><path d="M 145 55v 10h 10v -5a 5 5, 0, 0, 0, -5 -5" transform="rotate(0,150,60)"/><rect x="145" y="65" width="10" height="10" transform="rotate(0,150,70)"/><rect x="145" y="75" width="10" height="10" transform="rotate(0,150,80)"/><path d="M 145 195v 10h 10v -5a 5 5, 0, 0, 0, -5 -5" transform="rotate(-90,150,200)"/><path d="M 145 205v 10h 5a 5 5, 0, 0, 0, 0 -10" transform="rotate(90,150,210)"/><circle cx="150" cy="240" r="5" transform="rotate(0,150,240)"/><path d="M 145 255v 10h 5a 5 5, 0, 0, 0, 0 -10" transform="rotate(180,150,260)"/><path d="M 145 285v 10h 5a 5 5, 0, 0, 0, 0 -10" transform="rotate(0,150,290)"/><path d="M 155 45v 10h 5a 5 5, 0, 0, 0, 0 -10" transform="rotate(180,160,50)"/><path d="M 155 75v 10h 10v -5a 5 5, 0, 0, 0, -5 -5" transform="rotate(0,160,80)"/><path d="M 155 85v 10h 10v -5a 5 5, 0, 0, 0, -5 -5" transform="rotate(180,160,90)"/><path d="M 155 195v 10h 5a 5 5, 0, 0, 0, 0 -10" transform="rotate(0,160,200)"/><circle cx="160" cy="220" r="5" transform="rotate(0,160,220)"/><path d="M 155 245v 10h 5a 5 5, 0, 0, 0, 0 -10" transform="rotate(-90,160,250)"/><rect x="155" y="255" width="10" height="10" transform="rotate(0,160,260)"/><path d="M 155 265v 10h 5a 5 5, 0, 0, 0, 0 -10" transform="rotate(90,160,270)"/><path d="M 165 35v 10h 5a 5 5, 0, 0, 0, 0 -10" transform="rotate(-90,170,40)"/><rect x="165" y="45" width="10" height="10" transform="rotate(0,170,50)"/><rect x="165" y="55" width="10" height="10" transform="rotate(0,170,60)"/><path d="M 165 65v 10h 5a 5 5, 0, 0, 0, 0 -10" transform="rotate(90,170,70)"/><rect x="165" y="85" width="10" height="10" transform="rotate(0,170,90)"/><circle cx="170" cy="210" r="5" transform="rotate(0,170,210)"/><circle cx="170" cy="240" r="5" transform="rotate(0,170,240)"/><rect x="165" y="255" width="10" height="10" transform="rotate(0,170,260)"/><circle cx="170" cy="280" r="5" transform="rotate(0,170,280)"/><path d="M 175 5v 10h 10v -5a 5 5, 0, 0, 0, -5 -5" transform="rotate(-90,180,10)"/><rect x="175" y="15" width="10" height="10" transform="rotate(0,180,20)"/><path d="M 175 25v 10h 5a 5 5, 0, 0, 0, 0 -10" transform="rotate(90,180,30)"/><path d="M 175 55v 10h 5a 5 5, 0, 0, 0, 0 -10" transform="rotate(0,180,60)"/><path d="M 175 75v 10h 5a 5 5, 0, 0, 0, 0 -10" transform="rotate(-90,180,80)"/><rect x="175" y="85" width="10" height="10" transform="rotate(0,180,90)"/><path d="M 175 95v 10h 5a 5 5, 0, 0, 0, 0 -10" transform="rotate(90,180,100)"/><path d="M 175 245v 10h 5a 5 5, 0, 0, 0, 0 -10" transform="rotate(-90,180,250)"/><rect x="175" y="255" width="10" height="10" transform="rotate(0,180,260)"/><path d="M 175 265v 10h 5a 5 5, 0, 0, 0, 0 -10" transform="rotate(90,180,270)"/><rect x="185" y="5" width="10" height="10" transform="rotate(0,190,10)"/><rect x="185" y="15" width="10" height="10" transform="rotate(0,190,20)"/><circle cx="190" cy="40" r="5" transform="rotate(0,190,40)"/><circle cx="190" cy="70" r="5" transform="rotate(0,190,70)"/><circle cx="190" cy="200" r="5" transform="rotate(0,190,200)"/><path d="M 185 235v 10h 5a 5 5, 0, 0, 0, 0 -10" transform="rotate(180,190,240)"/><circle cx="190" cy="290" r="5" transform="rotate(0,190,290)"/><rect x="195" y="5" width="10" height="10" transform="rotate(0,200,10)"/><rect x="195" y="15" width="10" height="10" transform="rotate(0,200,20)"/><path d="M 195 45v 10h 5a 5 5, 0, 0, 0, 0 -10" transform="rotate(180,200,50)"/><path d="M 195 85v 10h 5a 5 5, 0, 0, 0, 0 -10" transform="rotate(180,200,90)"/><path d="M 195 105v 10h 5a 5 5, 0, 0, 0, 0 -10" transform="rotate(180,200,110)"/><path d="M 195 155v 10h 5a 5 5, 0, 0, 0, 0 -10" transform="rotate(-90,200,160)"/><path d="M 195 165v 10h 10v -5a 5 5, 0, 0, 0, -5 -5" transform="rotate(180,200,170)"/><circle cx="200" cy="190" r="5" transform="rotate(0,200,190)"/><path d="M 195 215v 10h 10v -5a 5 5, 0, 0, 0, -5 -5" transform="rotate(-90,200,220)"/><rect x="195" y="225" width="10" height="10" transform="rotate(0,200,230)"/><rect x="195" y="235" width="10" height="10" transform="rotate(0,200,240)"/><path d="M 195 265v 10h 10v -5a 5 5, 0, 0, 0, -5 -5" transform="rotate(-90,200,270)"/><path d="M 195 275v 10h 10v -5a 5 5, 0, 0, 0, -5 -5" transform="rotate(180,200,280)"/><path d="M 205 5v 10h 10v -5a 5 5, 0, 0, 0, -5 -5" transform="rotate(0,210,10)"/><rect x="205" y="15" width="10" height="10" transform="rotate(0,210,20)"/><rect x="205" y="25" width="10" height="10" transform="rotate(0,210,30)"/><rect x="205" y="35" width="10" height="10" transform="rotate(0,210,40)"/><rect x="205" y="45" width="10" height="10" transform="rotate(0,210,50)"/><rect x="205" y="55" width="10" height="10" transform="rotate(0,210,60)"/><path d="M 205 65v 10h 5a 5 5, 0, 0, 0, 0 -10" transform="rotate(90,210,70)"/><rect x="205" y="85" width="10" height="10" transform="rotate(0,210,90)"/><rect x="205" y="95" width="10" height="10" transform="rotate(0,210,100)"/><rect x="205" y="105" width="10" height="10" transform="rotate(0,210,110)"/><rect x="205" y="115" width="10" height="10" transform="rotate(0,210,120)"/><rect x="205" y="125" width="10" height="10" transform="rotate(0,210,130)"/><rect x="205" y="135" width="10" height="10" transform="rotate(0,210,140)"/><path d="M 205 145v 10h 5a 5 5, 0, 0, 0, 0 -10" transform="rotate(90,210,150)"/><path d="M 205 165v 10h 10v -5a 5 5, 0, 0, 0, -5 -5" transform="rotate(0,210,170)"/><path d="M 205 175v 10h 10v -5a 5 5, 0, 0, 0, -5 -5" transform="rotate(180,210,180)"/><path d="M 205 205v 10h 10v -5a 5 5, 0, 0, 0, -5 -5" transform="rotate(-90,210,210)"/><rect x="205" y="215" width="10" height="10" transform="rotate(0,210,220)"/><rect x="205" y="225" width="10" height="10" transform="rotate(0,210,230)"/><rect x="205" y="235" width="10" height="10" transform="rotate(0,210,240)"/><rect x="205" y="245" width="10" height="10" transform="rotate(0,210,250)"/><rect x="205" y="255" width="10" height="10" transform="rotate(0,210,260)"/><rect x="205" y="265" width="10" height="10" transform="rotate(0,210,270)"/><path d="M 205 275v 10h 10v -5a 5 5, 0, 0, 0, -5 -5" transform="rotate(90,210,280)"/><path d="M 215 85v 10h 10v -5a 5 5, 0, 0, 0, -5 -5" transform="rotate(0,220,90)"/><rect x="215" y="95" width="10" height="10" transform="rotate(0,220,100)"/><rect x="215" y="105" width="10" height="10" transform="rotate(0,220,110)"/><rect x="215" y="115" width="10" height="10" transform="rotate(0,220,120)"/><path d="M 215 125v 10h 10v -5a 5 5, 0, 0, 0, -5 -5" transform="rotate(90,220,130)"/><path d="M 215 155v 10h 5a 5 5, 0, 0, 0, 0 -10" transform="rotate(180,220,160)"/><path d="M 215 175v 10h 10v -5a 5 5, 0, 0, 0, -5 -5" transform="rotate(0,220,180)"/><rect x="215" y="185" width="10" height="10" transform="rotate(0,220,190)"/><rect x="215" y="195" width="10" height="10" transform="rotate(0,220,200)"/><rect x="215" y="205" width="10" height="10" transform="rotate(0,220,210)"/><rect x="215" y="245" width="10" height="10" transform="rotate(0,220,250)"/><rect x="215" y="255" width="10" height="10" transform="rotate(0,220,260)"/><rect x="215" y="265" width="10" height="10" transform="rotate(0,220,270)"/><rect x="225" y="95" width="10" height="10" transform="rotate(0,230,100)"/><path d="M 225 135v 10h 5a 5 5, 0, 0, 0, 0 -10" transform="rotate(-90,230,140)"/><rect x="225" y="145" width="10" height="10" transform="rotate(0,230,150)"/><rect x="225" y="155" width="10" height="10" transform="rotate(0,230,160)"/><path d="M 225 165v 10h 10v -5a 5 5, 0, 0, 0, -5 -5" transform="rotate(180,230,170)"/><rect x="225" y="195" width="10" height="10" transform="rotate(0,230,200)"/><rect x="225" y="205" width="10" height="10" transform="rotate(0,230,210)"/><circle cx="230" cy="230" r="5" transform="rotate(0,230,230)"/><rect x="225" y="245" width="10" height="10" transform="rotate(0,230,250)"/><path d="M 225 265v 10h 5a 5 5, 0, 0, 0, 0 -10" transform="rotate(0,230,270)"/><path d="M 235 85v 10h 10v -5a 5 5, 0, 0, 0, -5 -5" transform="rotate(-90,240,90)"/><path d="M 235 95v 10h 10v -5a 5 5, 0, 0, 0, -5 -5" transform="rotate(90,240,100)"/><rect x="235" y="155" width="10" height="10" transform="rotate(0,240,160)"/><path d="M 235 165v 10h 10v -5a 5 5, 0, 0, 0, -5 -5" transform="rotate(90,240,170)"/><path d="M 235 185v 10h 5a 5 5, 0, 0, 0, 0 -10" transform="rotate(-90,240,190)"/><rect x="235" y="195" width="10" height="10" transform="rotate(0,240,200)"/><rect x="235" y="205" width="10" height="10" transform="rotate(0,240,210)"/><rect x="235" y="245" width="10" height="10" transform="rotate(0,240,250)"/><path d="M 235 255v 10h 5a 5 5, 0, 0, 0, 0 -10" transform="rotate(90,240,260)"/><path d="M 235 275v 10h 5a 5 5, 0, 0, 0, 0 -10" transform="rotate(-90,240,280)"/><path d="M 235 285v 10h 10v -5a 5 5, 0, 0, 0, -5 -5" transform="rotate(180,240,290)"/><rect x="245" y="85" width="10" height="10" transform="rotate(0,250,90)"/><path d="M 245 105v 10h 5a 5 5, 0, 0, 0, 0 -10" transform="rotate(-90,250,110)"/><path d="M 245 115v 10h 5a 5 5, 0, 0, 0, 0 -10" transform="rotate(90,250,120)"/><path d="M 245 135v 10h 5a 5 5, 0, 0, 0, 0 -10" transform="rotate(-90,250,140)"/><rect x="245" y="145" width="10" height="10" transform="rotate(0,250,150)"/><path d="M 245 155v 10h 10v -5a 5 5, 0, 0, 0, -5 -5" transform="rotate(90,250,160)"/><circle cx="250" cy="180" r="5" transform="rotate(0,250,180)"/><path d="M 245 195v 10h 10v -5a 5 5, 0, 0, 0, -5 -5" transform="rotate(0,250,200)"/><rect x="245" y="205" width="10" height="10" transform="rotate(0,250,210)"/><rect x="245" y="215" width="10" height="10" transform="rotate(0,250,220)"/><rect x="245" y="225" width="10" height="10" transform="rotate(0,250,230)"/><rect x="245" y="235" width="10" height="10" transform="rotate(0,250,240)"/><path d="M 245 245v 10h 10v -5a 5 5, 0, 0, 0, -5 -5" transform="rotate(90,250,250)"/><path d="M 245 285v 10h 5a 5 5, 0, 0, 0, 0 -10" transform="rotate(0,250,290)"/><path d="M 255 85v 10h 10v -5a 5 5, 0, 0, 0, -5 -5" transform="rotate(0,260,90)"/><path d="M 255 95v 10h 5a 5 5, 0, 0, 0, 0 -10" transform="rotate(90,260,100)"/><path d="M 255 145v 10h 5a 5 5, 0, 0, 0, 0 -10" transform="rotate(0,260,150)"/><path d="M 255 185v 10h 5a 5 5, 0, 0, 0, 0 -10" transform="rotate(180,260,190)"/><rect x="255" y="235" width="10" height="10" transform="rotate(0,260,240)"/><circle cx="260" cy="260" r="5" transform="rotate(0,260,260)"/><path d="M 255 275v 10h 5a 5 5, 0, 0, 0, 0 -10" transform="rotate(180,260,280)"/><circle cx="270" cy="110" r="5" transform="rotate(0,270,110)"/><path d="M 265 125v 10h 10v -5a 5 5, 0, 0, 0, -5 -5" transform="rotate(-90,270,130)"/><path d="M 265 135v 10h 10v -5a 5 5, 0, 0, 0, -5 -5" transform="rotate(180,270,140)"/><circle cx="270" cy="160" r="5" transform="rotate(0,270,160)"/><path d="M 265 185v 10h 5a 5 5, 0, 0, 0, 0 -10" transform="rotate(0,270,190)"/><path d="M 265 205v 10h 5a 5 5, 0, 0, 0, 0 -10" transform="rotate(-90,270,210)"/><path d="M 265 215v 10h 10v -5a 5 5, 0, 0, 0, -5 -5" transform="rotate(180,270,220)"/><path d="M 265 235v 10h 10v -5a 5 5, 0, 0, 0, -5 -5" transform="rotate(0,270,240)"/><path d="M 265 245v 10h 10v -5a 5 5, 0, 0, 0, -5 -5" transform="rotate(180,270,250)"/><path d="M 265 265v 10h 10v -5a 5 5, 0, 0, 0, -5 -5" transform="rotate(-90,270,270)"/><rect x="265" y="275" width="10" height="10" transform="rotate(0,270,280)"/><path d="M 265 285v 10h 10v -5a 5 5, 0, 0, 0, -5 -5" transform="rotate(180,270,290)"/><path d="M 275 85v 10h 5a 5 5, 0, 0, 0, 0 -10" transform="rotate(-90,280,90)"/><path d="M 275 95v 10h 5a 5 5, 0, 0, 0, 0 -10" transform="rotate(90,280,100)"/><path d="M 275 115v 10h 5a 5 5, 0, 0, 0, 0 -10" transform="rotate(-90,280,120)"/><rect x="275" y="125" width="10" height="10" transform="rotate(0,280,130)"/><path d="M 275 135v 10h 10v -5a 5 5, 0, 0, 0, -5 -5" transform="rotate(90,280,140)"/><circle cx="280" cy="170" r="5" transform="rotate(0,280,170)"/><path d="M 275 215v 10h 5a 5 5, 0, 0, 0, 0 -10" transform="rotate(0,280,220)"/><rect x="275" y="245" width="10" height="10" transform="rotate(0,280,250)"/><path d="M 275 265v 10h 5a 5 5, 0, 0, 0, 0 -10" transform="rotate(0,280,270)"/><path d="M 275 285v 10h 5a 5 5, 0, 0, 0, 0 -10" transform="rotate(0,280,290)"/><circle cx="290" cy="110" r="5" transform="rotate(0,290,110)"/><path d="M 285 145v 10h 5a 5 5, 0, 0, 0, 0 -10" transform="rotate(-90,290,150)"/><path d="M 285 155v 10h 5a 5 5, 0, 0, 0, 0 -10" transform="rotate(90,290,160)"/><circle cx="290" cy="210" r="5" transform="rotate(0,290,210)"/><path d="M 285 235v 10h 5a 5 5, 0, 0, 0, 0 -10" transform="rotate(-90,290,240)"/><path d="M 285 245v 10h 10v -5a 5 5, 0, 0, 0, -5 -5" transform="rotate(90,290,250)"/><path d="M 5 5v 10h 10v -5a 5 5, 0, 0, 0, -5 -5" transform="rotate(-90,10,10)"/><rect x="5" y="15" width="10" height="10" transform="rotate(0,10,20)"/><rect x="5" y="25" width="10" height="10" transform="rotate(0,10,30)"/><rect x="5" y="35" width="10" height="10" transform="rotate(0,10,40)"/><rect x="5" y="45" width="10" height="10" transform="rotate(0,10,50)"/><rect x="5" y="55" width="10" height="10" transform="rotate(0,10,60)"/><path d="M 5 65v 10h 10v -5a 5 5, 0, 0, 0, -5 -5" transform="rotate(180,10,70)"/><rect x="15" y="5" width="10" height="10" transform="rotate(0,20,10)"/><rect x="15" y="65" width="10" height="10" transform="rotate(0,20,70)"/><rect x="25" y="5" width="10" height="10" transform="rotate(0,30,10)"/><rect x="25" y="65" width="10" height="10" transform="rotate(0,30,70)"/><rect x="35" y="5" width="10" height="10" transform="rotate(0,40,10)"/><rect x="35" y="65" width="10" height="10" transform="rotate(0,40,70)"/><rect x="45" y="5" width="10" height="10" transform="rotate(0,50,10)"/><rect x="45" y="65" width="10" height="10" transform="rotate(0,50,70)"/><rect x="55" y="5" width="10" height="10" transform="rotate(0,60,10)"/><rect x="55" y="65" width="10" height="10" transform="rotate(0,60,70)"/><path d="M 65 5v 10h 10v -5a 5 5, 0, 0, 0, -5 -5" transform="rotate(0,70,10)"/><rect x="65" y="15" width="10" height="10" transform="rotate(0,70,20)"/><rect x="65" y="25" width="10" height="10" transform="rotate(0,70,30)"/><rect x="65" y="35" width="10" height="10" transform="rotate(0,70,40)"/><rect x="65" y="45" width="10" height="10" transform="rotate(0,70,50)"/><rect x="65" y="55" width="10" height="10" transform="rotate(0,70,60)"/><path d="M 65 65v 10h 10v -5a 5 5, 0, 0, 0, -5 -5" transform="rotate(90,70,70)"/><path d="M 25 25v 10h 10v -5a 5 5, 0, 0, 0, -5 -5" transform="rotate(-90,30,30)"/><rect x="25" y="35" width="10" height="10" transform="rotate(0,30,40)"/><path d="M 25 45v 10h 10v -5a 5 5, 0, 0, 0, -5 -5" transform="rotate(180,30,50)"/><rect x="35" y="25" width="10" height="10" transform="rotate(0,40,30)"/><rect x="35" y="35" width="10" height="10" transform="rotate(0,40,40)"/><rect x="35" y="45" width="10" height="10" transform="rotate(0,40,50)"/><path d="M 45 25v 10h 10v -5a 5 5, 0, 0, 0, -5 -5" transform="rotate(0,50,30)"/><rect x="45" y="35" width="10" height="10" transform="rotate(0,50,40)"/><path d="M 45 45v 10h 10v -5a 5 5, 0, 0, 0, -5 -5" transform="rotate(90,50,50)"/><path d="M 225 5v 10h 10v -5a 5 5, 0, 0, 0, -5 -5" transform="rotate(-90,230,10)"/><rect x="225" y="15" width="10" height="10" transform="rotate(0,230,20)"/><rect x="225" y="25" width="10" height="10" transform="rotate(0,230,30)"/><rect x="225" y="35" width="10" height="10" transform="rotate(0,230,40)"/><rect x="225" y="45" width="10" height="10" transform="rotate(0,230,50)"/><rect x="225" y="55" width="10" height="10" transform="rotate(0,230,60)"/><path d="M 225 65v 10h 10v -5a 5 5, 0, 0, 0, -5 -5" transform="rotate(180,230,70)"/><rect x="235" y="5" width="10" height="10" transform="rotate(0,240,10)"/><rect x="235" y="65" width="10" height="10" transform="rotate(0,240,70)"/><rect x="245" y="5" width="10" height="10" transform="rotate(0,250,10)"/><rect x="245" y="65" width="10" height="10" transform="rotate(0,250,70)"/><rect x="255" y="5" width="10" height="10" transform="rotate(0,260,10)"/><rect x="255" y="65" width="10" height="10" transform="rotate(0,260,70)"/><rect x="265" y="5" width="10" height="10" transform="rotate(0,270,10)"/><rect x="265" y="65" width="10" height="10" transform="rotate(0,270,70)"/><rect x="275" y="5" width="10" height="10" transform="rotate(0,280,10)"/><rect x="275" y="65" width="10" height="10" transform="rotate(0,280,70)"/><path d="M 285 5v 10h 10v -5a 5 5, 0, 0, 0, -5 -5" transform="rotate(0,290,10)"/><rect x="285" y="15" width="10" height="10" transform="rotate(0,290,20)"/><rect x="285" y="25" width="10" height="10" transform="rotate(0,290,30)"/><rect x="285" y="35" width="10" height="10" transform="rotate(0,290,40)"/><rect x="285" y="45" width="10" height="10" transform="rotate(0,290,50)"/><rect x="285" y="55" width="10" height="10" transform="rotate(0,290,60)"/><path d="M 285 65v 10h 10v -5a 5 5, 0, 0, 0, -5 -5" transform="rotate(90,290,70)"/><path d="M 245 25v 10h 10v -5a 5 5, 0, 0, 0, -5 -5" transform="rotate(-90,250,30)"/><rect x="245" y="35" width="10" height="10" transform="rotate(0,250,40)"/><path d="M 245 45v 10h 10v -5a 5 5, 0, 0, 0, -5 -5" transform="rotate(180,250,50)"/><rect x="255" y="25" width="10" height="10" transform="rotate(0,260,30)"/><rect x="255" y="35" width="10" height="10" transform="rotate(0,260,40)"/><rect x="255" y="45" width="10" height="10" transform="rotate(0,260,50)"/><path d="M 265 25v 10h 10v -5a 5 5, 0, 0, 0, -5 -5" transform="rotate(0,270,30)"/><rect x="265" y="35" width="10" height="10" transform="rotate(0,270,40)"/><path d="M 265 45v 10h 10v -5a 5 5, 0, 0, 0, -5 -5" transform="rotate(90,270,50)"/><path d="M 5 225v 10h 10v -5a 5 5, 0, 0, 0, -5 -5" transform="rotate(-90,10,230)"/><rect x="5" y="235" width="10" height="10" transform="rotate(0,10,240)"/><rect x="5" y="245" width="10" height="10" transform="rotate(0,10,250)"/><rect x="5" y="255" width="10" height="10" transform="rotate(0,10,260)"/><rect x="5" y="265" width="10" height="10" transform="rotate(0,10,270)"/><rect x="5" y="275" width="10" height="10" transform="rotate(0,10,280)"/><path d="M 5 285v 10h 10v -5a 5 5, 0, 0, 0, -5 -5" transform="rotate(180,10,290)"/><rect x="15" y="225" width="10" height="10" transform="rotate(0,20,230)"/><rect x="15" y="285" width="10" height="10" transform="rotate(0,20,290)"/><rect x="25" y="225" width="10" height="10" transform="rotate(0,30,230)"/><rect x="25" y="285" width="10" height="10" transform="rotate(0,30,290)"/><rect x="35" y="225" width="10" height="10" transform="rotate(0,40,230)"/><rect x="35" y="285" width="10" height="10" transform="rotate(0,40,290)"/><rect x="45" y="225" width="10" height="10" transform="rotate(0,50,230)"/><rect x="45" y="285" width="10" height="10" transform="rotate(0,50,290)"/><rect x="55" y="225" width="10" height="10" transform="rotate(0,60,230)"/><rect x="55" y="285" width="10" height="10" transform="rotate(0,60,290)"/><path d="M 65 225v 10h 10v -5a 5 5, 0, 0, 0, -5 -5" transform="rotate(0,70,230)"/><rect x="65" y="235" width="10" height="10" transform="rotate(0,70,240)"/><rect x="65" y="245" width="10" height="10" transform="rotate(0,70,250)"/><rect x="65" y="255" width="10" height="10" transform="rotate(0,70,260)"/><rect x="65" y="265" width="10" height="10" transform="rotate(0,70,270)"/><rect x="65" y="275" width="10" height="10" transform="rotate(0,70,280)"/><path d="M 65 285v 10h 10v -5a 5 5, 0, 0, 0, -5 -5" transform="rotate(90,70,290)"/><path d="M 25 245v 10h 10v -5a 5 5, 0, 0, 0, -5 -5" transform="rotate(-90,30,250)"/><rect x="25" y="255" width="10" height="10" transform="rotate(0,30,260)"/><path d="M 25 265v 10h 10v -5a 5 5, 0, 0, 0, -5 -5" transform="rotate(180,30,270)"/><rect x="35" y="245" width="10" height="10" transform="rotate(0,40,250)"/><rect x="35" y="255" width="10" height="10" transform="rotate(0,40,260)"/><rect x="35" y="265" width="10" height="10" transform="rotate(0,40,270)"/><path d="M 45 245v 10h 10v -5a 5 5, 0, 0, 0, -5 -5" transform="rotate(0,50,250)"/><rect x="45" y="255" width="10" height="10" transform="rotate(0,50,260)"/><path d="M 45 265v 10h 10v -5a 5 5, 0, 0, 0, -5 -5" transform="rotate(90,50,270)"/></clipPath></defs><rect x="0" y="0" height="300" width="300" clip-path="url('#clip-path-background-color')" fill="#e9ebee"/><rect x="5" y="5" height="290" width="290" clip-path="url('#clip-path-dot-color')" fill="#4267b2"/><image href="https://upload.wikimedia.org/wikipedia/commons/5/51/Facebook_f_logo_%282019%29.svg" x="125" y="125" width="50px" height="50px"/></svg>