<?xml version="1.0" encoding="utf-8"?>
<svg baseProfile="tiny" height="1122" version="1.2" width="1000" xmlns="http://www.w3.org/2000/svg" xmlns:ev="http://www.w3.org/2001/xml-events" xmlns:xlink="http://www.w3.org/1999/xlink">
	<defs />
	<image height="250.0" transform="translate(80.0,50)" width="160.6" x="0" xlink:href="modelo_frente.svg" y="0" />
	<image height="250.0" transform="translate(244.6,50)" width="160.6" x="0" xlink:href="modelo_frente.svg" y="0" />
	<image height="250.0" transform="translate(409.2,50)" width="160.6" x="0" xlink:href="modelo_frente.svg" y="0" />
	<image height="250.0" transform="translate(573.79,50)" width="160.6" x="0" xlink:href="modelo_frente.svg" y="0" />
	<image height="250.0" transform="translate(748.4,50)" width="160.6" x="0" xlink:href="modelo_frente.svg" y="0" />
	<image height="530.0" transform="translate(80.0,163)" width="160.6" x="0" xlink:href="modelo_frente.svg" y="0" />
	<image height="530.0" transform="translate(244.6,163)" width="160.6" x="0" xlink:href="modelo_frente.svg" y="0" />
	<image height="530.0" transform="translate(409.2,163)" width="160.6" x="0" xlink:href="modelo_frente.svg" y="0" />
	<image height="530.0" transform="translate(573.79,163)" width="160.6" x="0" xlink:href="modelo_frente.svg" y="0" />
	<image height="530.0" transform="translate(748.4,163)" width="160.6" x="0" xlink:href="modelo_frente.svg" y="0" />
</svg>


